<svg width="50" height="50" viewBox="0 0 50 50" fill="none" xmlns="http://www.w3.org/2000/svg">
<mask id="mask0_524_22474" style="mask-type:alpha" maskUnits="userSpaceOnUse" x="0" y="0" width="50" height="50">
<rect width="50" height="50" fill="#D9D9D9"/>
</mask>
<g mask="url(#mask0_524_22474)">
<path d="M22.0833 28.75L17.6041 24.2709C17.2222 23.8889 16.7361 23.6979 16.1458 23.6979C15.5555 23.6979 15.0694 23.8889 14.6875 24.2709C14.3055 24.6528 14.1145 25.1389 14.1145 25.7292C14.1145 26.3195 14.3055 26.8056 14.6875 27.1875L20.625 33.125C21.0416 33.5417 21.5277 33.75 22.0833 33.75C22.6388 33.75 23.125 33.5417 23.5416 33.125L35.3125 21.3542C35.6944 20.9722 35.8854 20.4861 35.8854 19.8959C35.8854 19.3056 35.6944 18.8195 35.3125 18.4375C34.9305 18.0556 34.4444 17.8646 33.8541 17.8646C33.2638 17.8646 32.7777 18.0556 32.3958 18.4375L22.0833 28.75ZM25 45.8334C22.118 45.8334 19.4097 45.2865 16.875 44.1927C14.3402 43.099 12.1354 41.6146 10.2604 39.7396C8.38538 37.8646 6.901 35.6597 5.80725 33.125C4.7135 30.5903 4.16663 27.882 4.16663 25C4.16663 22.1181 4.7135 19.4097 5.80725 16.875C6.901 14.3403 8.38538 12.1354 10.2604 10.2604C12.1354 8.38544 14.3402 6.90106 16.875 5.80731C19.4097 4.71356 22.118 4.16669 25 4.16669C27.8819 4.16669 30.5902 4.71356 33.125 5.80731C35.6597 6.90106 37.8645 8.38544 39.7395 10.2604C41.6145 12.1354 43.0989 14.3403 44.1927 16.875C45.2864 19.4097 45.8333 22.1181 45.8333 25C45.8333 27.882 45.2864 30.5903 44.1927 33.125C43.0989 35.6597 41.6145 37.8646 39.7395 39.7396C37.8645 41.6146 35.6597 43.099 33.125 44.1927C30.5902 45.2865 27.8819 45.8334 25 45.8334Z" fill="#00AC69"/>
<path d="M22.0833 28.75L17.6041 24.2709C17.2222 23.8889 16.7361 23.6979 16.1458 23.6979C15.5555 23.6979 15.0694 23.8889 14.6875 24.2709C14.3055 24.6528 14.1145 25.1389 14.1145 25.7292C14.1145 26.3195 14.3055 26.8056 14.6875 27.1875L20.625 33.125C21.0416 33.5417 21.5277 33.75 22.0833 33.75C22.6388 33.75 23.125 33.5417 23.5416 33.125L35.3125 21.3542C35.6944 20.9722 35.8854 20.4861 35.8854 19.8959C35.8854 19.3056 35.6944 18.8195 35.3125 18.4375C34.9305 18.0556 34.4444 17.8646 33.8541 17.8646C33.2638 17.8646 32.7777 18.0556 32.3958 18.4375L22.0833 28.75Z" fill="white"/>
</g>
</svg>
