<svg width="88" height="88" viewBox="0 0 88 88" fill="none" xmlns="http://www.w3.org/2000/svg">
<path d="M62.1001 87.33L7.62939e-05 87.33L7.62939e-05 25.23C7.62939e-05 11.31 11.3001 -4.57764e-05 25.2301 -4.57764e-05L87.3301 -4.57764e-05L87.3301 62.1C87.3301 76.03 76.0301 87.33 62.1001 87.33Z" fill="#F1F2F7"/>
<mask id="mask0_524_22426" style="mask-type:alpha" maskUnits="userSpaceOnUse" x="19" y="19" width="50" height="50">
<rect x="19" y="19" width="50" height="50" fill="#D9D9D9"/>
</mask>
<g mask="url(#mask0_524_22426)">
<path d="M37.7502 56.5001H50.2502C50.8404 56.5001 51.3352 56.3004 51.7345 55.9011C52.1338 55.5018 52.3335 55.007 52.3335 54.4167C52.3335 53.8265 52.1338 53.3317 51.7345 52.9324C51.3352 52.5331 50.8404 52.3334 50.2502 52.3334H37.7502C37.1599 52.3334 36.6651 52.5331 36.2658 52.9324C35.8665 53.3317 35.6668 53.8265 35.6668 54.4167C35.6668 55.007 35.8665 55.5018 36.2658 55.9011C36.6651 56.3004 37.1599 56.5001 37.7502 56.5001ZM37.7502 48.1667H50.2502C50.8404 48.1667 51.3352 47.9671 51.7345 47.5678C52.1338 47.1685 52.3335 46.6737 52.3335 46.0834C52.3335 45.4931 52.1338 44.9983 51.7345 44.599C51.3352 44.1997 50.8404 44.0001 50.2502 44.0001H37.7502C37.1599 44.0001 36.6651 44.1997 36.2658 44.599C35.8665 44.9983 35.6668 45.4931 35.6668 46.0834C35.6668 46.6737 35.8665 47.1685 36.2658 47.5678C36.6651 47.9671 37.1599 48.1667 37.7502 48.1667ZM31.5002 64.8334C30.3543 64.8334 29.3734 64.4254 28.5575 63.6095C27.7415 62.7935 27.3335 61.8126 27.3335 60.6667V27.3334C27.3335 26.1876 27.7415 25.2067 28.5575 24.3907C29.3734 23.5747 30.3543 23.1667 31.5002 23.1667H46.4481C47.0036 23.1667 47.5331 23.2709 48.0366 23.4792C48.5401 23.6876 48.9828 23.9827 49.3647 24.3647L59.4689 34.4688C59.8509 34.8508 60.146 35.2935 60.3543 35.797C60.5627 36.3004 60.6668 36.8299 60.6668 37.3855V60.6667C60.6668 61.8126 60.2588 62.7935 59.4429 63.6095C58.6269 64.4254 57.646 64.8334 56.5002 64.8334H31.5002ZM46.0835 35.6667C46.0835 36.257 46.2831 36.7518 46.6825 37.1511C47.0818 37.5504 47.5765 37.7501 48.1668 37.7501H56.5002L46.0835 27.3334V35.6667Z" fill="#00AC69"/>
<path d="M46.0835 35.6667C46.0835 36.257 46.2831 36.7518 46.6825 37.1511C47.0818 37.5504 47.5765 37.7501 48.1668 37.7501H56.5002L46.0835 27.3334V35.6667Z" fill="white"/>
<path d="M37.7502 48.1667H50.2502C50.8404 48.1667 51.3352 47.9671 51.7345 47.5678C52.1338 47.1685 52.3335 46.6737 52.3335 46.0834C52.3335 45.4931 52.1338 44.9983 51.7345 44.599C51.3352 44.1997 50.8404 44.0001 50.2502 44.0001H37.7502C37.1599 44.0001 36.6651 44.1997 36.2658 44.599C35.8665 44.9983 35.6668 45.4931 35.6668 46.0834C35.6668 46.6737 35.8665 47.1685 36.2658 47.5678C36.6651 47.9671 37.1599 48.1667 37.7502 48.1667Z" fill="white"/>
<path d="M37.7502 56.5001H50.2502C50.8404 56.5001 51.3352 56.3004 51.7345 55.9011C52.1338 55.5018 52.3335 55.007 52.3335 54.4167C52.3335 53.8265 52.1338 53.3317 51.7345 52.9324C51.3352 52.5331 50.8404 52.3334 50.2502 52.3334H37.7502C37.1599 52.3334 36.6651 52.5331 36.2658 52.9324C35.8665 53.3317 35.6668 53.8265 35.6668 54.4167C35.6668 55.007 35.8665 55.5018 36.2658 55.9011C36.6651 56.3004 37.1599 56.5001 37.7502 56.5001Z" fill="white"/>
</g>
</svg>
