<svg width="88" height="88" viewBox="0 0 88 88" fill="none" xmlns="http://www.w3.org/2000/svg">
<path d="M62.1001 87.33L7.62939e-05 87.33L7.62939e-05 25.23C7.62939e-05 11.31 11.3001 -4.57764e-05 25.2301 -4.57764e-05L87.3301 -4.57764e-05L87.3301 62.1C87.3301 76.03 76.0301 87.33 62.1001 87.33Z" fill="#2B2F4B"/>
<mask id="mask0_136_3133" style="mask-type:alpha" maskUnits="userSpaceOnUse" x="19" y="19" width="50" height="50">
<rect x="19" y="19" width="50" height="50" fill="#D9D9D9"/>
</mask>
<g mask="url(#mask0_136_3133)">
<path d="M37.7507 56.5001H50.2507C50.8409 56.5001 51.3357 56.3004 51.735 55.9011C52.1343 55.5018 52.334 55.007 52.334 54.4167C52.334 53.8265 52.1343 53.3317 51.735 52.9324C51.3357 52.5331 50.8409 52.3334 50.2507 52.3334H37.7507C37.1604 52.3334 36.6656 52.5331 36.2663 52.9324C35.867 53.3317 35.6673 53.8265 35.6673 54.4167C35.6673 55.007 35.867 55.5018 36.2663 55.9011C36.6656 56.3004 37.1604 56.5001 37.7507 56.5001ZM37.7507 48.1667H50.2507C50.8409 48.1667 51.3357 47.9671 51.735 47.5678C52.1343 47.1685 52.334 46.6737 52.334 46.0834C52.334 45.4931 52.1343 44.9983 51.735 44.599C51.3357 44.1997 50.8409 44.0001 50.2507 44.0001H37.7507C37.1604 44.0001 36.6656 44.1997 36.2663 44.599C35.867 44.9983 35.6673 45.4931 35.6673 46.0834C35.6673 46.6737 35.867 47.1685 36.2663 47.5678C36.6656 47.9671 37.1604 48.1667 37.7507 48.1667ZM31.5007 64.8334C30.3548 64.8334 29.3739 64.4254 28.5579 63.6095C27.742 62.7935 27.334 61.8126 27.334 60.6667V27.3334C27.334 26.1876 27.742 25.2067 28.5579 24.3907C29.3739 23.5747 30.3548 23.1667 31.5007 23.1667H46.4486C47.0041 23.1667 47.5336 23.2709 48.0371 23.4792C48.5406 23.6876 48.9833 23.9827 49.3652 24.3647L59.4694 34.4688C59.8513 34.8508 60.1465 35.2935 60.3548 35.797C60.5631 36.3004 60.6673 36.8299 60.6673 37.3855V60.6667C60.6673 61.8126 60.2593 62.7935 59.4434 63.6095C58.6274 64.4254 57.6465 64.8334 56.5007 64.8334H31.5007ZM46.084 35.6667C46.084 36.257 46.2836 36.7518 46.6829 37.1511C47.0822 37.5504 47.577 37.7501 48.1673 37.7501H56.5007L46.084 27.3334V35.6667Z" fill="white"/>
<path d="M46.084 35.6667C46.084 36.257 46.2836 36.7518 46.6829 37.1511C47.0822 37.5504 47.577 37.7501 48.1673 37.7501H56.5007L46.084 27.3334V35.6667Z" fill="#181A29"/>
<path d="M37.7507 48.1667H50.2507C50.8409 48.1667 51.3357 47.9671 51.735 47.5678C52.1343 47.1685 52.334 46.6737 52.334 46.0834C52.334 45.4931 52.1343 44.9983 51.735 44.599C51.3357 44.1997 50.8409 44.0001 50.2507 44.0001H37.7507C37.1604 44.0001 36.6656 44.1997 36.2663 44.599C35.867 44.9983 35.6673 45.4931 35.6673 46.0834C35.6673 46.6737 35.867 47.1685 36.2663 47.5678C36.6656 47.9671 37.1604 48.1667 37.7507 48.1667Z" fill="#181A29"/>
<path d="M37.7507 56.5001H50.2507C50.8409 56.5001 51.3357 56.3004 51.735 55.9011C52.1343 55.5018 52.334 55.007 52.334 54.4167C52.334 53.8265 52.1343 53.3317 51.735 52.9324C51.3357 52.5331 50.8409 52.3334 50.2507 52.3334H37.7507C37.1604 52.3334 36.6656 52.5331 36.2663 52.9324C35.867 53.3317 35.6673 53.8265 35.6673 54.4167C35.6673 55.007 35.867 55.5018 36.2663 55.9011C36.6656 56.3004 37.1604 56.5001 37.7507 56.5001Z" fill="#181A29"/>
</g>
</svg>
