<svg width="88" height="88" viewBox="0 0 88 88" fill="none" xmlns="http://www.w3.org/2000/svg">
<path d="M62.1001 87.33L7.62939e-05 87.33L7.62939e-05 25.23C7.62939e-05 11.31 11.3001 -4.57764e-05 25.2301 -4.57764e-05L87.3301 -4.57764e-05L87.3301 62.1C87.3301 76.03 76.0301 87.33 62.1001 87.33Z" fill="#2B2F4B"/>
<mask id="mask0_136_3129" style="mask-type:alpha" maskUnits="userSpaceOnUse" x="19" y="19" width="50" height="50">
<rect x="19" y="19" width="50" height="50" fill="#D9D9D9"/>
</mask>
<g mask="url(#mask0_136_3129)">
<path d="M27.3327 60.6667C26.1868 60.6667 25.2059 60.2587 24.39 59.4427C23.574 58.6268 23.166 57.6459 23.166 56.5V31.5C23.166 30.3542 23.574 29.3733 24.39 28.5573C25.2059 27.7414 26.1868 27.3334 27.3327 27.3334H60.666C61.8118 27.3334 62.7928 27.7414 63.6087 28.5573C64.4247 29.3733 64.8327 30.3542 64.8327 31.5V56.5C64.8327 57.6459 64.4247 58.6268 63.6087 59.4427C62.7928 60.2587 61.8118 60.6667 60.666 60.6667H27.3327ZM43.9993 45.7188C44.173 45.7188 44.3552 45.6927 44.5462 45.6407C44.7372 45.5886 44.9195 45.5105 45.0931 45.4063L59.8327 36.1875C60.1105 36.0139 60.3188 35.7969 60.4577 35.5365C60.5966 35.2761 60.666 34.9896 60.666 34.6771C60.666 33.9827 60.3709 33.4618 59.7806 33.1146C59.1903 32.7674 58.5827 32.7848 57.9577 33.1667L50.9785 37.5417L43.9993 41.9167L30.041 33.1667C29.416 32.7848 28.8084 32.7761 28.2181 33.1407C27.6278 33.5052 27.3327 34.0174 27.3327 34.6771C27.3327 35.0243 27.4021 35.3282 27.541 35.5886C27.6799 35.849 27.8882 36.0487 28.166 36.1875L42.9056 45.4063C43.0792 45.5105 43.2615 45.5886 43.4525 45.6407C43.6434 45.6927 43.8257 45.7188 43.9993 45.7188Z" fill="white"/>
<path d="M43.9993 45.7188C44.173 45.7188 44.3552 45.6927 44.5462 45.6407C44.7372 45.5886 44.9195 45.5105 45.0931 45.4063L59.8327 36.1875C60.1105 36.0139 60.3188 35.7969 60.4577 35.5365C60.5966 35.2761 60.666 34.9896 60.666 34.6771C60.666 33.9827 60.3709 33.4618 59.7806 33.1146C59.1903 32.7674 58.5827 32.7848 57.9577 33.1667L50.9785 37.5417L43.9993 41.9167L30.041 33.1667C29.416 32.7848 28.8084 32.7761 28.2181 33.1407C27.6278 33.5052 27.3327 34.0174 27.3327 34.6771C27.3327 35.0243 27.4021 35.3282 27.541 35.5886C27.6799 35.849 27.8882 36.0487 28.166 36.1875L42.9056 45.4063C43.0792 45.5105 43.2615 45.5886 43.4525 45.6407C43.6434 45.6927 43.8257 45.7188 43.9993 45.7188Z" fill="#181A29"/>
</g>
</svg>
