<svg width="88" height="88" viewBox="0 0 88 88" fill="none" xmlns="http://www.w3.org/2000/svg">
<path d="M62.1001 87.3302L7.62939e-05 87.3302L7.62939e-05 25.2302C7.62939e-05 11.3102 11.3001 0.000198364 25.2301 0.000198364L87.3301 0.000198364L87.3301 62.1002C87.3301 76.0302 76.0301 87.3302 62.1001 87.3302Z" fill="#F1F2F7"/>
<mask id="mask0_235_2481" style="mask-type:alpha" maskUnits="userSpaceOnUse" x="19" y="19" width="50" height="51">
<rect x="19" y="19.0002" width="50" height="50" fill="#D9D9D9"/>
</mask>
<g mask="url(#mask0_235_2481)">
<path d="M44 62.7502C39.625 62.7502 35.7535 61.4221 32.3854 58.7659C29.0174 56.1096 26.8299 52.7155 25.8229 48.5836C25.684 48.0627 25.7882 47.5853 26.1354 47.1513C26.4826 46.7173 26.9514 46.4655 27.5417 46.3961C28.0972 46.3266 28.6007 46.4308 29.0521 46.7086C29.5035 46.9864 29.816 47.403 29.9896 47.9586C30.8229 51.0836 32.5417 53.6357 35.1458 55.6148C37.75 57.594 40.7014 58.5836 44 58.5836C48.0625 58.5836 51.5087 57.1686 54.3385 54.3388C57.1684 51.5089 58.5833 48.0627 58.5833 44.0002C58.5833 39.9377 57.1684 36.4916 54.3385 33.6617C51.5087 30.8318 48.0625 29.4169 44 29.4169C41.6042 29.4169 39.3646 29.9725 37.2812 31.0836C35.1979 32.1947 33.4444 33.7225 32.0208 35.6669H35.6667C36.2569 35.6669 36.7517 35.8666 37.151 36.2659C37.5503 36.6652 37.75 37.16 37.75 37.7502C37.75 38.3405 37.5503 38.8353 37.151 39.2346C36.7517 39.6339 36.2569 39.8336 35.6667 39.8336H27.3333C26.7431 39.8336 26.2483 39.6339 25.849 39.2346C25.4497 38.8353 25.25 38.3405 25.25 37.7502V29.4169C25.25 28.8266 25.4497 28.3318 25.849 27.9325C26.2483 27.5332 26.7431 27.3336 27.3333 27.3336C27.9236 27.3336 28.4184 27.5332 28.8177 27.9325C29.217 28.3318 29.4167 28.8266 29.4167 29.4169V32.2294C31.1875 30.0072 33.349 28.2884 35.901 27.0732C38.4531 25.8579 41.1528 25.2502 44 25.2502C46.6042 25.2502 49.0434 25.745 51.3177 26.7346C53.592 27.7242 55.5712 29.061 57.2552 30.745C58.9392 32.4291 60.276 34.4082 61.2656 36.6825C62.2552 38.9568 62.75 41.3961 62.75 44.0002C62.75 46.6044 62.2552 49.0436 61.2656 51.318C60.276 53.5923 58.9392 55.5714 57.2552 57.2555C55.5712 58.9395 53.592 60.2763 51.3177 61.2659C49.0434 62.2555 46.6042 62.7502 44 62.7502ZM46.0833 43.1669L51.2917 48.3752C51.6736 48.7572 51.8646 49.2433 51.8646 49.8336C51.8646 50.4239 51.6736 50.91 51.2917 51.2919C50.9097 51.6739 50.4236 51.8648 49.8333 51.8648C49.2431 51.8648 48.7569 51.6739 48.375 51.2919L42.5417 45.4586C42.3333 45.2502 42.1771 45.0159 42.0729 44.7555C41.9687 44.495 41.9167 44.2259 41.9167 43.9482V35.6669C41.9167 35.0766 42.1163 34.5818 42.5156 34.1825C42.9149 33.7832 43.4097 33.5836 44 33.5836C44.5903 33.5836 45.0851 33.7832 45.4844 34.1825C45.8837 34.5818 46.0833 35.0766 46.0833 35.6669V43.1669Z" fill="#00AC69"/>
</g>
</svg>
