<svg width="88" height="88" viewBox="0 0 88 88" fill="none" xmlns="http://www.w3.org/2000/svg">
<path d="M62.1001 87.8301L7.62939e-05 87.8301L7.62939e-05 25.7301C7.62939e-05 11.8101 11.3001 0.500076 25.2301 0.500076L87.3301 0.500076L87.3301 62.6001C87.3301 76.5301 76.0301 87.8301 62.1001 87.8301Z" fill="#F1F2F7"/>
<mask id="mask0_619_3313" style="mask-type:alpha" maskUnits="userSpaceOnUse" x="19" y="19" width="50" height="51">
<rect x="19" y="19.5001" width="50" height="50" fill="#D9D9D9"/>
</mask>
<g mask="url(#mask0_619_3313)">
<path d="M29.4167 63.2501C28.2708 63.2501 27.2899 62.8421 26.474 62.0262C25.658 61.2102 25.25 60.2293 25.25 59.0835V38.2501C25.25 37.1043 25.658 36.1234 26.474 35.3074C27.2899 34.4914 28.2708 34.0835 29.4167 34.0835H33.5833V29.9168C33.5833 28.771 33.9913 27.7901 34.8073 26.9741C35.6233 26.1581 36.6042 25.7501 37.75 25.7501H50.25C51.3958 25.7501 52.3767 26.1581 53.1927 26.9741C54.0087 27.7901 54.4167 28.771 54.4167 29.9168V42.4168H58.5833C59.7292 42.4168 60.7101 42.8248 61.526 43.6407C62.342 44.4567 62.75 45.4376 62.75 46.5835V59.0835C62.75 60.2293 62.342 61.2102 61.526 62.0262C60.7101 62.8421 59.7292 63.2501 58.5833 63.2501H46.0833V54.9168H41.9167V63.2501H29.4167ZM29.4167 59.0835H33.5833V54.9168H29.4167V59.0835ZM29.4167 50.7501H33.5833V46.5835H29.4167V50.7501ZM29.4167 42.4168H33.5833V38.2501H29.4167V42.4168ZM37.75 50.7501H41.9167V46.5835H37.75V50.7501ZM37.75 42.4168H41.9167V38.2501H37.75V42.4168ZM37.75 34.0835H41.9167V29.9168H37.75V34.0835ZM46.0833 50.7501H50.25V46.5835H46.0833V50.7501ZM46.0833 42.4168H50.25V38.2501H46.0833V42.4168ZM46.0833 34.0835H50.25V29.9168H46.0833V34.0835ZM54.4167 59.0835H58.5833V54.9168H54.4167V59.0835ZM54.4167 50.7501H58.5833V46.5835H54.4167V50.7501Z" fill="#00AC69"/>
</g>
</svg>
