<svg width="88" height="88" viewBox="0 0 88 88" fill="none" xmlns="http://www.w3.org/2000/svg">
<path d="M62.1001 87.33L7.62939e-05 87.33L7.62939e-05 25.23C7.62939e-05 11.31 11.3001 -4.57764e-05 25.2301 -4.57764e-05L87.3301 -4.57764e-05L87.3301 62.1C87.3301 76.03 76.0301 87.33 62.1001 87.33Z" fill="#F1F2F7"/>
<mask id="mask0_524_22412" style="mask-type:alpha" maskUnits="userSpaceOnUse" x="19" y="19" width="50" height="50">
<rect x="19" y="19" width="50" height="50" fill="#D9D9D9"/>
</mask>
<g mask="url(#mask0_524_22412)">
<path d="M27.3333 62.75C26.7431 62.75 26.2483 62.5503 25.849 62.151C25.4497 61.7517 25.25 61.2569 25.25 60.6666V58.5833C25.25 57.993 25.4497 57.4982 25.849 57.0989C26.2483 56.6996 26.7431 56.5 27.3333 56.5C27.9236 56.5 28.4184 56.6996 28.8177 57.0989C29.217 57.4982 29.4167 57.993 29.4167 58.5833V60.6666C29.4167 61.2569 29.217 61.7517 28.8177 62.151C28.4184 62.5503 27.9236 62.75 27.3333 62.75ZM35.6667 62.75C35.0764 62.75 34.5816 62.5503 34.1823 62.151C33.783 61.7517 33.5833 61.2569 33.5833 60.6666V49.2083C33.5833 48.618 33.783 48.1232 34.1823 47.7239C34.5816 47.3246 35.0764 47.125 35.6667 47.125C36.2569 47.125 36.7517 47.3246 37.151 47.7239C37.5503 48.1232 37.75 48.618 37.75 49.2083V60.6666C37.75 61.2569 37.5503 61.7517 37.151 62.151C36.7517 62.5503 36.2569 62.75 35.6667 62.75ZM44 62.75C43.4097 62.75 42.9149 62.5503 42.5156 62.151C42.1163 61.7517 41.9167 61.2569 41.9167 60.6666V53.375C41.9167 52.7847 42.1163 52.2899 42.5156 51.8906C42.9149 51.4913 43.4097 51.2917 44 51.2917C44.5903 51.2917 45.0851 51.4913 45.4844 51.8906C45.8837 52.2899 46.0833 52.7847 46.0833 53.375V60.6666C46.0833 61.2569 45.8837 61.7517 45.4844 62.151C45.0851 62.5503 44.5903 62.75 44 62.75ZM52.3333 62.75C51.7431 62.75 51.2483 62.5503 50.849 62.151C50.4497 61.7517 50.25 61.2569 50.25 60.6666V50.25C50.25 49.6597 50.4497 49.1649 50.849 48.7656C51.2483 48.3663 51.7431 48.1667 52.3333 48.1667C52.9236 48.1667 53.4184 48.3663 53.8177 48.7656C54.217 49.1649 54.4167 49.6597 54.4167 50.25V60.6666C54.4167 61.2569 54.217 61.7517 53.8177 62.151C53.4184 62.5503 52.9236 62.75 52.3333 62.75ZM60.6667 62.75C60.0764 62.75 59.5816 62.5503 59.1823 62.151C58.783 61.7517 58.5833 61.2569 58.5833 60.6666V41.9166C58.5833 41.3264 58.783 40.8316 59.1823 40.4323C59.5816 40.033 60.0764 39.8333 60.6667 39.8333C61.2569 39.8333 61.7517 40.033 62.151 40.4323C62.5503 40.8316 62.75 41.3264 62.75 41.9166V60.6666C62.75 61.2569 62.5503 61.7517 62.151 62.151C61.7517 62.5503 61.2569 62.75 60.6667 62.75ZM48.1667 43.9479C47.6111 43.9479 47.0816 43.8437 46.5781 43.6354C46.0747 43.4271 45.6146 43.1319 45.1979 42.75L39.8333 37.3854L28.7917 48.4271C28.375 48.8437 27.8802 49.0434 27.3073 49.026C26.7344 49.0087 26.2396 48.7916 25.8229 48.375C25.441 47.9583 25.2587 47.4635 25.276 46.8906C25.2934 46.3177 25.4931 45.8403 25.875 45.4583L36.8646 34.4687C37.2812 34.0521 37.7413 33.7482 38.2448 33.5573C38.7483 33.3663 39.2778 33.2708 39.8333 33.2708C40.3889 33.2708 40.9271 33.3663 41.4479 33.5573C41.9688 33.7482 42.4201 34.0521 42.8021 34.4687L48.1667 39.8333L59.2083 28.7917C59.625 28.375 60.1198 28.1753 60.6927 28.1927C61.2656 28.2101 61.7604 28.4271 62.1771 28.8437C62.559 29.2604 62.7413 29.7552 62.724 30.3281C62.7066 30.901 62.5069 31.3785 62.125 31.7604L51.1354 42.75C50.7535 43.1319 50.3021 43.4271 49.7812 43.6354C49.2604 43.8437 48.7222 43.9479 48.1667 43.9479Z" fill="#00AC69"/>
</g>
</svg>
