<svg width="89" height="88" viewBox="0 0 89 88" fill="none" xmlns="http://www.w3.org/2000/svg">
<path d="M62.8823 87.7217L0.782303 87.7217L0.782303 25.6217C0.782303 11.7017 12.0823 0.391678 26.0123 0.391678L88.1123 0.391678L88.1123 62.4917C88.1123 76.4217 76.8123 87.7217 62.8823 87.7217Z" fill="#2B2F4B"/>
<mask id="mask0_413_3030" style="mask-type:alpha" maskUnits="userSpaceOnUse" x="20" y="19" width="50" height="50">
<rect x="20" y="19" width="50" height="50" fill="#D9D9D9"/>
</mask>
<g mask="url(#mask0_413_3030)">
<path d="M45.2083 62.75C44.6181 62.75 44.1233 62.5503 43.724 62.151C43.3247 61.7517 43.125 61.2569 43.125 60.6667C43.125 60.4236 43.1771 60.1719 43.2812 59.9115C43.3854 59.651 43.5417 59.4167 43.75 59.2083L52.6563 50.3021C52.8646 50.0938 52.9688 49.842 52.9688 49.5469C52.9688 49.2517 52.8646 49 52.6563 48.7917C52.4479 48.5833 52.1962 48.4878 51.901 48.5052C51.6059 48.5226 51.3542 48.6354 51.1458 48.8438L42.2917 57.6979C42.0833 57.9062 41.8576 58.0625 41.6146 58.1667C41.3715 58.2708 41.1111 58.3229 40.8333 58.3229C40.2431 58.3229 39.7483 58.1233 39.349 57.724C38.9497 57.3247 38.75 56.8299 38.75 56.2396C38.75 55.8924 38.8021 55.6059 38.9062 55.3802C39.0104 55.1545 39.1493 54.9549 39.3229 54.7812L48.2292 45.875C48.4375 45.6667 48.5417 45.4236 48.5417 45.1458C48.5417 44.8681 48.4375 44.625 48.2292 44.4167C48.0208 44.2083 47.7778 44.1042 47.5 44.1042C47.2222 44.1042 46.9792 44.2083 46.7708 44.4167L37.8646 53.2708C37.6562 53.4792 37.4306 53.6354 37.1875 53.7396C36.9444 53.8437 36.6667 53.8958 36.3542 53.8958C35.7986 53.8958 35.3125 53.6875 34.8958 53.2708C34.4792 52.8542 34.2708 52.3681 34.2708 51.8125C34.2708 51.5347 34.3229 51.2743 34.4271 51.0312C34.5312 50.7882 34.6875 50.5625 34.8958 50.3542L43.75 41.5C43.9583 41.2917 44.0625 41.0399 44.0625 40.7448C44.0625 40.4497 43.9583 40.1979 43.75 39.9896C43.5417 39.7812 43.2986 39.6771 43.0208 39.6771C42.7431 39.6771 42.5 39.7812 42.2917 39.9896L33.4375 48.8958C33.2639 49.0694 33.0556 49.2083 32.8125 49.3125C32.5694 49.4167 32.2743 49.4687 31.9271 49.4687C31.3368 49.4687 30.842 49.2691 30.4427 48.8698C30.0434 48.4705 29.8438 47.9757 29.8438 47.3854C29.8438 47.1076 29.8958 46.8472 30 46.6042C30.1042 46.3611 30.2604 46.1354 30.4688 45.9271L40.6771 35.7187C41.059 35.3368 41.5365 35.1632 42.1094 35.1979C42.6823 35.2326 43.1597 35.441 43.5417 35.8229L49.8958 42.1771C50.2778 42.559 50.7292 42.8628 51.25 43.0885C51.7708 43.3142 52.2917 43.4271 52.8125 43.4271C53.9236 43.4271 54.8958 43.0365 55.7292 42.2552C56.5625 41.474 56.9792 40.4757 56.9792 39.2604C56.9792 38.7743 56.8924 38.2708 56.7188 37.75C56.5451 37.2292 56.2326 36.7431 55.7813 36.2917L48.6458 29.1562C48.2639 28.7743 48.0122 28.3576 47.8906 27.9062C47.7691 27.4549 47.8299 27.0208 48.0729 26.6042C48.3854 26.0833 48.7847 25.7014 49.2708 25.4583C49.7569 25.2153 50.2951 25.0938 50.8854 25.0938C51.6146 25.0938 52.3611 25.2674 53.125 25.6146C53.8889 25.9618 54.5833 26.4479 55.2083 27.0729L64.0104 35.9271C64.6354 36.5521 65.0955 37.2465 65.3906 38.0104C65.6858 38.7743 65.8333 39.6597 65.8333 40.6667C65.8333 41.3611 65.6771 42.0642 65.3646 42.776C65.0521 43.4878 64.6007 44.1389 64.0104 44.7292L46.6667 62.125C46.3889 62.4028 46.1458 62.5764 45.9375 62.6458C45.7292 62.7153 45.4861 62.75 45.2083 62.75ZM26.0417 44.2604C25.3819 43.7743 24.8872 43.1927 24.5573 42.5156C24.2274 41.8385 24.0625 41.1181 24.0625 40.3542C24.0625 39.5556 24.2274 38.7743 24.5573 38.0104C24.8872 37.2465 25.3646 36.5521 25.9896 35.9271L34.7917 27.0729C35.3819 26.4826 36.033 26.0312 36.7448 25.7188C37.4566 25.4062 38.2118 25.25 39.0104 25.25C39.8785 25.25 40.7205 25.4062 41.5365 25.7188C42.3524 26.0312 43.0556 26.4826 43.6458 27.0729L54.3229 37.75C54.4965 37.9236 54.6441 38.1406 54.7656 38.401C54.8872 38.6615 54.9479 38.9306 54.9479 39.2083C54.9479 39.7986 54.7483 40.2934 54.349 40.6927C53.9497 41.092 53.4549 41.2917 52.8646 41.2917C52.5868 41.2917 52.3177 41.2309 52.0573 41.1094C51.7969 40.9878 51.5799 40.8403 51.4062 40.6667L45 34.3125C44.2014 33.5139 43.2205 33.1146 42.0573 33.1146C40.8941 33.1146 39.9132 33.5139 39.1146 34.3125L29.3229 44.1042C28.8715 44.5556 28.342 44.7899 27.7344 44.8073C27.1267 44.8247 26.5625 44.6424 26.0417 44.2604Z" fill="white"/>
</g>
</svg>
