<svg width="89" height="88" viewBox="0 0 89 88" fill="none" xmlns="http://www.w3.org/2000/svg">
<path d="M62.5764 88L-7.62939e-06 88L-7.62939e-06 25.4236C-7.62939e-06 11.3968 11.3867 -7.62939e-06 25.4236 -7.62939e-06L88 -7.62939e-06L88 62.5764C88 76.6133 76.6133 88 62.5764 88Z" fill="#F1F2F7"/>
<path d="M45.1458 62.6562C44.5556 62.6562 44.0608 62.4566 43.6615 62.0573C43.2622 61.658 43.0625 61.1632 43.0625 60.5729C43.0625 60.3299 43.1146 60.0781 43.2188 59.8177C43.3229 59.5573 43.4792 59.3229 43.6875 59.1146L52.5938 50.2083C52.8021 50 52.9062 49.7483 52.9062 49.4531C52.9062 49.158 52.8021 48.9062 52.5938 48.6979C52.3854 48.4896 52.1337 48.3941 51.8385 48.4115C51.5434 48.4288 51.2917 48.5417 51.0833 48.75L42.2292 57.6042C42.0208 57.8125 41.7951 57.9688 41.5521 58.0729C41.309 58.1771 41.0486 58.2292 40.7708 58.2292C40.1806 58.2292 39.6858 58.0295 39.2865 57.6302C38.8872 57.2309 38.6875 56.7361 38.6875 56.1458C38.6875 55.7986 38.7396 55.5122 38.8438 55.2865C38.9479 55.0608 39.0868 54.8611 39.2604 54.6875L48.1667 45.7812C48.375 45.5729 48.4792 45.3299 48.4792 45.0521C48.4792 44.7743 48.375 44.5312 48.1667 44.3229C47.9583 44.1146 47.7153 44.0104 47.4375 44.0104C47.1597 44.0104 46.9167 44.1146 46.7083 44.3229L37.8021 53.1771C37.5938 53.3854 37.3681 53.5417 37.125 53.6458C36.8819 53.75 36.6042 53.8021 36.2917 53.8021C35.7361 53.8021 35.25 53.5938 34.8333 53.1771C34.4167 52.7604 34.2083 52.2743 34.2083 51.7187C34.2083 51.441 34.2604 51.1806 34.3646 50.9375C34.4688 50.6944 34.625 50.4687 34.8333 50.2604L43.6875 41.4062C43.8958 41.1979 44 40.9462 44 40.651C44 40.3559 43.8958 40.1042 43.6875 39.8958C43.4792 39.6875 43.2361 39.5833 42.9583 39.5833C42.6806 39.5833 42.4375 39.6875 42.2292 39.8958L33.375 48.8021C33.2014 48.9757 32.9931 49.1146 32.75 49.2188C32.5069 49.3229 32.2118 49.375 31.8646 49.375C31.2743 49.375 30.7795 49.1753 30.3802 48.776C29.9809 48.3767 29.7813 47.8819 29.7813 47.2917C29.7813 47.0139 29.8333 46.7535 29.9375 46.5104C30.0417 46.2674 30.1979 46.0417 30.4063 45.8333L40.6146 35.625C40.9965 35.2431 41.474 35.0694 42.0469 35.1042C42.6198 35.1389 43.0972 35.3472 43.4792 35.7292L49.8333 42.0833C50.2153 42.4653 50.6667 42.7691 51.1875 42.9948C51.7083 43.2205 52.2292 43.3333 52.75 43.3333C53.8611 43.3333 54.8333 42.9427 55.6667 42.1615C56.5 41.3802 56.9167 40.3819 56.9167 39.1667C56.9167 38.6806 56.8299 38.1771 56.6562 37.6562C56.4826 37.1354 56.1701 36.6493 55.7188 36.1979L48.5833 29.0625C48.2014 28.6806 47.9497 28.2639 47.8281 27.8125C47.7066 27.3611 47.7674 26.9271 48.0104 26.5104C48.3229 25.9896 48.7222 25.6076 49.2083 25.3646C49.6944 25.1215 50.2326 25 50.8229 25C51.5521 25 52.2986 25.1736 53.0625 25.5208C53.8264 25.8681 54.5208 26.3542 55.1458 26.9792L63.9479 35.8333C64.5729 36.4583 65.033 37.1528 65.3281 37.9167C65.6233 38.6806 65.7708 39.566 65.7708 40.5729C65.7708 41.2674 65.6146 41.9705 65.3021 42.6823C64.9896 43.3941 64.5382 44.0451 63.9479 44.6354L46.6042 62.0312C46.3264 62.309 46.0833 62.4826 45.875 62.5521C45.6667 62.6215 45.4236 62.6562 45.1458 62.6562ZM25.9792 44.1667C25.3194 43.6806 24.8247 43.099 24.4948 42.4219C24.1649 41.7448 24 41.0243 24 40.2604C24 39.4618 24.1649 38.6806 24.4948 37.9167C24.8247 37.1528 25.3021 36.4583 25.9271 35.8333L34.7292 26.9792C35.3194 26.3889 35.9705 25.9375 36.6823 25.625C37.3941 25.3125 38.1493 25.1562 38.9479 25.1562C39.816 25.1562 40.658 25.3125 41.474 25.625C42.2899 25.9375 42.9931 26.3889 43.5833 26.9792L54.2604 37.6562C54.434 37.8299 54.5816 38.0469 54.7031 38.3073C54.8247 38.5677 54.8854 38.8368 54.8854 39.1146C54.8854 39.7049 54.6858 40.1997 54.2865 40.599C53.8872 40.9983 53.3924 41.1979 52.8021 41.1979C52.5243 41.1979 52.2552 41.1372 51.9948 41.0156C51.7344 40.8941 51.5174 40.7465 51.3438 40.5729L44.9375 34.2188C44.1389 33.4201 43.158 33.0208 41.9948 33.0208C40.8316 33.0208 39.8507 33.4201 39.0521 34.2188L29.2604 44.0104C28.809 44.4618 28.2795 44.6962 27.6719 44.7135C27.0642 44.7309 26.5 44.5486 25.9792 44.1667Z" fill="#00AC69"/>
</svg>
