<svg width="88" height="88" viewBox="0 0 88 88" fill="none" xmlns="http://www.w3.org/2000/svg">
<path d="M41.0797 41.6768L28.0588 36.0518C27.2255 35.6699 26.7133 35.0536 26.5224 34.2029C26.3314 33.3522 26.5658 32.597 27.2255 31.9373L28.0588 31.1039C28.3366 30.8261 28.6751 30.6178 29.0744 30.4789C29.4738 30.34 29.8817 30.3053 30.2984 30.3748L49.0484 33.7081L55.5067 27.1977C56.3054 26.3991 57.2863 25.9998 58.4495 25.9998C59.6126 25.9998 60.5935 26.3991 61.3922 27.1977C62.1908 27.9963 62.5901 28.9772 62.5901 30.1404C62.5901 31.3036 62.1908 32.2845 61.3922 33.0831L54.9338 39.5935L58.2151 58.2914C58.2845 58.7081 58.2585 59.1248 58.137 59.5414C58.0154 59.9581 57.8158 60.3053 57.538 60.5831L56.7047 61.3643C56.0449 62.0241 55.281 62.2671 54.413 62.0935C53.5449 61.9199 52.9199 61.4164 52.538 60.5831L46.9651 47.5623L41.6526 52.8227L42.7984 59.281C42.8679 59.6282 42.8505 59.9668 42.7463 60.2966C42.6422 60.6265 42.4685 60.9129 42.2255 61.156L41.3401 62.0414C40.854 62.5275 40.255 62.7185 39.5432 62.6143C38.8314 62.5102 38.3019 62.1456 37.9547 61.5206L34.1526 54.4893L27.1213 50.6873C26.4963 50.34 26.1317 49.8105 26.0276 49.0987C25.9234 48.3869 26.1144 47.788 26.6005 47.3018L27.4859 46.4164C27.729 46.1734 28.0154 45.9998 28.3453 45.8956C28.6751 45.7914 29.0137 45.7741 29.3609 45.8435L35.7672 46.9373L41.0797 41.6768Z" fill="white"/>
</svg>
