<svg width="88" height="88" viewBox="0 0 88 88" fill="none" xmlns="http://www.w3.org/2000/svg">
<path d="M27.3333 58.1667C25.0417 58.1667 23.0799 57.3507 21.4479 55.7187C19.816 54.0868 19 52.125 19 49.8333C19 47.8542 19.6337 46.1007 20.901 44.5729C22.1684 43.0451 23.7917 42.0903 25.7708 41.7083L24.3125 40.4583H20.5625C20.1111 40.4583 19.7378 40.3108 19.4427 40.0156C19.1476 39.7205 19 39.3472 19 38.8958C19 38.4444 19.1476 38.0712 19.4427 37.776C19.7378 37.4809 20.1111 37.3333 20.5625 37.3333H28.375L33.5833 40.4583L41.1875 37.5937C41.4306 37.5243 41.6736 37.4635 41.9167 37.4115C42.1597 37.3594 42.4201 37.3333 42.6979 37.3333H48.4792L45.25 33.1667H41.9167C41.3264 33.1667 40.8316 32.967 40.4323 32.5677C40.033 32.1684 39.8333 31.6736 39.8333 31.0833C39.8333 30.4931 40.033 29.9983 40.4323 29.599C40.8316 29.1997 41.3264 29 41.9167 29H45.1979C45.8576 29 46.474 29.1476 47.0469 29.4427C47.6198 29.7378 48.0972 30.1285 48.4792 30.6146L51.6042 34.625L57.0729 31.8646C57.4201 31.691 57.7587 31.7083 58.0885 31.9167C58.4184 32.125 58.5833 32.4201 58.5833 32.8021V36.2917C58.5833 36.5694 58.4792 36.8125 58.2708 37.0208C58.0625 37.2292 57.8194 37.3333 57.5417 37.3333H53.7917L57.4375 42.125C57.9583 41.9167 58.4878 41.7604 59.026 41.6563C59.5642 41.5521 60.1111 41.5 60.6667 41.5C62.9583 41.5 64.9201 42.316 66.5521 43.9479C68.184 45.5799 69 47.5417 69 49.8333C69 52.125 68.184 54.0868 66.5521 55.7187C64.9201 57.3507 62.9583 58.1667 60.6667 58.1667C58.375 58.1667 56.4132 57.3507 54.7813 55.7187C53.1493 54.0868 52.3333 52.125 52.3333 49.8333C52.3333 48.8958 52.4983 47.9844 52.8281 47.099C53.158 46.2135 53.6181 45.3889 54.2083 44.625L53.1667 43.375L46.7083 53.0625C46.5347 53.3403 46.2917 53.566 45.9792 53.7396C45.6667 53.9132 45.3368 54 44.9896 54H40.6146C40.3368 54 40.0851 53.9566 39.8594 53.8698C39.6337 53.783 39.434 53.6528 39.2604 53.4792L35.6667 50.3542C35.4931 52.5417 34.6076 54.3906 33.0104 55.901C31.4132 57.4115 29.5208 58.1667 27.3333 58.1667ZM27.3333 54C28.4792 54 29.4601 53.592 30.276 52.776C31.092 51.9601 31.5 50.9792 31.5 49.8333C31.5 48.6875 31.092 47.7066 30.276 46.8906C29.4601 46.0747 28.4792 45.6667 27.3333 45.6667C26.1875 45.6667 25.2066 46.0747 24.3906 46.8906C23.5747 47.7066 23.1667 48.6875 23.1667 49.8333C23.1667 50.9792 23.5747 51.9601 24.3906 52.776C25.2066 53.592 26.1875 54 27.3333 54ZM60.6667 54C61.8125 54 62.7934 53.592 63.6094 52.776C64.4253 51.9601 64.8333 50.9792 64.8333 49.8333C64.8333 48.6875 64.4253 47.7066 63.6094 46.8906C62.7934 46.0747 61.8125 45.6667 60.6667 45.6667C59.5208 45.6667 58.5399 46.0747 57.724 46.8906C56.908 47.7066 56.5 48.6875 56.5 49.8333C56.5 50.9792 56.908 51.9601 57.724 52.776C58.5399 53.592 59.5208 54 60.6667 54Z" fill="white"/>
</svg>
