<svg width="88" height="88" viewBox="0 0 88 88" fill="none" xmlns="http://www.w3.org/2000/svg">
<path d="M31.2292 43.3378C32.1319 41.0461 33.217 38.8413 34.4844 36.7232C35.7517 34.6051 37.184 32.6086 38.7812 30.7336L36.0729 30.1607C35.3785 30.0218 34.7014 30.0565 34.0417 30.2649C33.3819 30.4732 32.809 30.8204 32.3229 31.3065L25.7604 37.869C25.2396 38.3899 25.0399 39.0149 25.1615 39.744C25.283 40.4732 25.691 40.9767 26.3854 41.2545L31.2292 43.3378ZM61.8542 23.0253C58.1736 22.8517 54.6753 23.5635 51.3594 25.1607C48.0434 26.7579 45.0833 28.8586 42.4792 31.4628C40.8125 33.1295 39.3455 34.935 38.0781 36.8795C36.8108 38.8239 35.7083 40.8725 34.7708 43.0253C34.5972 43.4767 34.5104 43.9367 34.5104 44.4055C34.5104 44.8742 34.684 45.2822 35.0312 45.6295L41.5417 52.1399C41.8889 52.4871 42.2969 52.6607 42.7656 52.6607C43.2344 52.6607 43.6944 52.5739 44.1458 52.4003C46.2986 51.4628 48.3472 50.3604 50.2917 49.093C52.2361 47.8256 54.0417 46.3586 55.7083 44.692C58.3125 42.0878 60.4132 39.1277 62.0104 35.8117C63.6076 32.4958 64.3194 28.9975 64.1458 25.317C64.1458 25.0392 64.0764 24.7614 63.9375 24.4836C63.7986 24.2058 63.625 23.9628 63.4167 23.7545C63.2083 23.5461 62.9653 23.3725 62.6875 23.2336C62.4097 23.0947 62.1319 23.0253 61.8542 23.0253ZM48.625 38.5461C47.8264 37.7475 47.4271 36.7666 47.4271 35.6034C47.4271 34.4402 47.8264 33.4593 48.625 32.6607C49.4236 31.8621 50.4045 31.4628 51.5677 31.4628C52.7309 31.4628 53.7118 31.8621 54.5104 32.6607C55.309 33.4593 55.7083 34.4402 55.7083 35.6034C55.7083 36.7666 55.309 37.7475 54.5104 38.5461C53.7118 39.3447 52.7309 39.744 51.5677 39.744C50.4045 39.744 49.4236 39.3447 48.625 38.5461ZM43.8333 55.942L45.9167 60.7857C46.1944 61.4801 46.6979 61.8968 47.4271 62.0357C48.1562 62.1746 48.7812 61.9836 49.3021 61.4628L55.8646 54.9003C56.3507 54.4142 56.6979 53.8326 56.9062 53.1555C57.1146 52.4784 57.1493 51.7926 57.0104 51.0982L56.4896 48.3899C54.5799 49.9871 52.5747 51.4194 50.474 52.6867C48.3733 53.9541 46.1597 55.0392 43.8333 55.942ZM26.9062 51.4628C28.1215 50.2475 29.5972 49.6312 31.3333 49.6138C33.0694 49.5965 34.5451 50.1954 35.7604 51.4107C36.9757 52.626 37.5833 54.1017 37.5833 55.8378C37.5833 57.5739 36.9757 59.0496 35.7604 60.2649C34.0937 61.9315 32.1233 62.9211 29.849 63.2336C27.5747 63.5461 25.2917 63.8586 23 64.1711C23.3125 61.8795 23.6337 59.5965 23.9635 57.3222C24.2934 55.0479 25.2743 53.0947 26.9062 51.4628Z" fill="white"/>
</svg>
