<svg width="88" height="88" viewBox="0 0 88 88" fill="none" xmlns="http://www.w3.org/2000/svg">
<path d="M31.25 56.1667V57.2083C31.25 58.0764 30.9462 58.8142 30.3385 59.4219C29.7309 60.0295 28.9931 60.3333 28.125 60.3333C27.2569 60.3333 26.5191 60.0295 25.9115 59.4219C25.3038 58.8142 25 58.0764 25 57.2083V42.3125C25 42.0694 25.0174 41.8264 25.0521 41.5833C25.0868 41.3403 25.1389 41.1146 25.2083 40.9062L29.1146 29.8125C29.3924 28.9792 29.8958 28.3021 30.625 27.7812C31.3542 27.2604 32.1701 27 33.0729 27H54.4271C55.3299 27 56.1458 27.2604 56.875 27.7812C57.6042 28.3021 58.1076 28.9792 58.3854 29.8125L62.2917 40.9062C62.3611 41.1146 62.4132 41.3403 62.4479 41.5833C62.4826 41.8264 62.5 42.0694 62.5 42.3125V57.2083C62.5 58.0764 62.1962 58.8142 61.5885 59.4219C60.9809 60.0295 60.2431 60.3333 59.375 60.3333C58.5069 60.3333 57.7691 60.0295 57.1615 59.4219C56.5538 58.8142 56.25 58.0764 56.25 57.2083V56.1667H31.25ZM30.8333 37.4167H56.6667L54.4792 31.1667H33.0208L30.8333 37.4167ZM34.375 49.9167C35.2431 49.9167 35.9809 49.6128 36.5885 49.0052C37.1962 48.3976 37.5 47.6597 37.5 46.7917C37.5 45.9236 37.1962 45.1858 36.5885 44.5781C35.9809 43.9705 35.2431 43.6667 34.375 43.6667C33.5069 43.6667 32.7691 43.9705 32.1615 44.5781C31.5538 45.1858 31.25 45.9236 31.25 46.7917C31.25 47.6597 31.5538 48.3976 32.1615 49.0052C32.7691 49.6128 33.5069 49.9167 34.375 49.9167ZM53.125 49.9167C53.9931 49.9167 54.7309 49.6128 55.3385 49.0052C55.9462 48.3976 56.25 47.6597 56.25 46.7917C56.25 45.9236 55.9462 45.1858 55.3385 44.5781C54.7309 43.9705 53.9931 43.6667 53.125 43.6667C52.2569 43.6667 51.5191 43.9705 50.9115 44.5781C50.3038 45.1858 50 45.9236 50 46.7917C50 47.6597 50.3038 48.3976 50.9115 49.0052C51.5191 49.6128 52.2569 49.9167 53.125 49.9167Z" fill="white"/>
</svg>
