<svg width="88" height="88" viewBox="0 0 88 88" fill="none" xmlns="http://www.w3.org/2000/svg">
<path d="M62.5764 88L-3.84543e-06 88L-3.84543e-06 25.4236C-3.84543e-06 11.3968 11.3867 -3.84543e-06 25.4236 -3.84543e-06L88 -3.84543e-06L88 62.5764C88 76.6133 76.6133 88 62.5764 88Z" fill="#F1F2F7"/>
<path d="M44.5 63.9368C48.6427 62.671 52.1021 60.171 54.8781 56.4368C57.6542 52.7027 59.2771 48.536 59.7469 43.9368H44.5V24.0001L29.125 29.6963V42.7976C29.125 43.093 29.1677 43.4727 29.2531 43.9368H44.5V63.9368ZM44.5 69.0001C44.201 69.0001 43.9234 68.979 43.6672 68.9368C43.4109 68.8946 43.1547 68.8313 42.8984 68.747C37.1328 66.8482 32.5417 63.3356 29.125 58.209C25.7083 53.0824 24 47.5655 24 41.6583V29.6963C24 28.6415 24.3096 27.6921 24.9289 26.8482C25.5482 26.0043 26.349 25.3925 27.3313 25.0128L42.7063 19.3166C43.3042 19.1056 43.9021 19.0001 44.5 19.0001C45.0979 19.0001 45.6958 19.1056 46.2937 19.3166L61.6687 25.0128C62.651 25.3925 63.4518 26.0043 64.0711 26.8482C64.6904 27.6921 65 28.6415 65 29.6963V41.6583C65 47.5655 63.2917 53.0824 59.875 58.209C56.4583 63.3356 51.8672 66.8482 46.1016 68.747C45.8453 68.8313 45.5891 68.8946 45.3328 68.9368C45.0766 68.979 44.799 69.0001 44.5 69.0001Z" fill="#00AC69"/>
</svg>
