<?xml version="1.0" encoding="UTF-8" standalone="no"?>
<!DOCTYPE svg PUBLIC "-//W3C//DTD SVG 1.1//EN" "http://www.w3.org/Graphics/SVG/1.1/DTD/svg11.dtd">
<svg width="100%" height="100%" viewBox="0 0 88 88" version="1.1" xmlns="http://www.w3.org/2000/svg" xmlns:xlink="http://www.w3.org/1999/xlink" xml:space="preserve" xmlns:serif="http://www.serif.com/" style="fill-rule:evenodd;clip-rule:evenodd;stroke-linejoin:round;stroke-miterlimit:2;">
    <path d="M62.576,88L-0,88L-0,25.424C-0,11.397 11.387,-0 25.424,-0L88,-0L88,62.576C88,76.613 76.613,88 62.576,88Z" style="fill:rgb(43,47,75);fill-rule:nonzero;"/>
    <path d="M44.5,63.937C48.643,62.671 52.102,60.171 54.878,56.437C57.654,52.703 59.277,48.536 59.747,43.937L44.5,43.937L44.5,24L29.125,29.696L29.125,42.798C29.125,43.093 29.168,43.473 29.253,43.937L44.5,43.937L44.5,63.937ZM44.5,69C44.201,69 43.923,68.979 43.667,68.937C43.411,68.895 43.155,68.831 42.898,68.747C37.133,66.848 32.542,63.336 29.125,58.209C25.708,53.082 24,47.566 24,41.658L24,29.696C24,28.642 24.31,27.692 24.929,26.848C25.548,26.004 26.349,25.392 27.331,25.013L42.706,19.317C43.304,19.106 43.902,19 44.5,19C45.098,19 45.696,19.106 46.294,19.317L61.669,25.013C62.651,25.392 63.452,26.004 64.071,26.848C64.69,27.692 65,28.642 65,29.696L65,41.658C65,47.566 63.292,53.082 59.875,58.209C56.458,63.336 51.867,66.848 46.102,68.747C45.845,68.831 45.589,68.895 45.333,68.937C45.077,68.979 44.799,69 44.5,69Z" style="fill:rgb(223,224,228);fill-rule:nonzero;"/>
</svg>
