<svg width="88" height="88" viewBox="0 0 88 88" fill="none" xmlns="http://www.w3.org/2000/svg">
<path d="M62.1001 87.33L7.62939e-05 87.33L7.62939e-05 25.23C7.62939e-05 11.31 11.3001 -4.57764e-05 25.2301 -4.57764e-05L87.3301 -4.57764e-05L87.3301 62.1C87.3301 76.03 76.0301 87.33 62.1001 87.33Z" fill="#2B2F4B"/>
<mask id="mask0_136_3131" style="mask-type:alpha" maskUnits="userSpaceOnUse" x="19" y="19" width="50" height="50">
<rect x="19" y="19" width="50" height="50" fill="#D9D9D9"/>
</mask>
<g mask="url(#mask0_136_3131)">
<path d="M43.9993 64.8334C41.1174 64.8334 38.4091 64.2865 35.8743 63.1928C33.3396 62.099 31.1348 60.6147 29.2598 58.7397C27.3848 56.8647 25.9004 54.6598 24.8066 52.1251C23.7129 49.5904 23.166 46.882 23.166 44.0001C23.166 41.1181 23.7129 38.4098 24.8066 35.8751C25.9004 33.3404 27.3848 31.1355 29.2598 29.2605C31.1348 27.3855 33.3396 25.9011 35.8743 24.8074C38.4091 23.7136 41.1174 23.1667 43.9993 23.1667C46.8813 23.1667 49.5896 23.7136 52.1243 24.8074C54.6591 25.9011 56.8639 27.3855 58.7389 29.2605C60.6139 31.1355 62.0983 33.3404 63.1921 35.8751C64.2858 38.4098 64.8327 41.1181 64.8327 44.0001C64.8327 46.882 64.2858 49.5904 63.1921 52.1251C62.0983 54.6598 60.6139 56.8647 58.7389 58.7397C56.8639 60.6147 54.6591 62.099 52.1243 63.1928C49.5896 64.2865 46.8813 64.8334 43.9993 64.8334ZM43.9473 58.5834C44.4334 58.5834 44.8587 58.4011 45.2233 58.0365C45.5879 57.672 45.7702 57.2466 45.7702 56.7605V55.9792C47.5063 55.6667 48.9993 54.9897 50.2493 53.948C51.4993 52.9063 52.1243 51.3612 52.1243 49.3126C52.1243 47.8542 51.7077 46.5174 50.8743 45.3022C50.041 44.0869 48.3743 43.0279 45.8743 42.1251C43.791 41.4306 42.35 40.823 41.5514 40.3022C40.7528 39.7813 40.3535 39.0695 40.3535 38.1667C40.3535 37.264 40.6747 36.5522 41.3171 36.0313C41.9594 35.5105 42.8882 35.2501 44.1035 35.2501C44.798 35.2501 45.4056 35.3716 45.9264 35.6147C46.4473 35.8577 46.8813 36.1876 47.2285 36.6042C47.5757 37.0209 47.9664 37.3074 48.4004 37.4636C48.8344 37.6199 49.2424 37.6112 49.6243 37.4376C50.1452 37.2292 50.5011 36.8733 50.6921 36.3699C50.883 35.8664 50.8396 35.4063 50.5618 34.9897C50.0063 34.1911 49.3205 33.514 48.5046 32.9584C47.6886 32.4029 46.8118 32.0904 45.8743 32.0209V31.2397C45.8743 30.7536 45.6921 30.3282 45.3275 29.9636C44.9629 29.599 44.5375 29.4167 44.0514 29.4167C43.5653 29.4167 43.14 29.599 42.7754 29.9636C42.4108 30.3282 42.2285 30.7536 42.2285 31.2397V32.0209C40.4924 32.4029 39.1382 33.1667 38.166 34.3126C37.1938 35.4584 36.7077 36.7431 36.7077 38.1667C36.7077 39.7987 37.1851 41.1181 38.14 42.1251C39.0948 43.132 40.5966 44.0001 42.6452 44.7292C44.8327 45.5279 46.3518 46.2397 47.2025 46.8647C48.0532 47.4897 48.4785 48.3056 48.4785 49.3126C48.4785 50.4584 48.0705 51.3004 47.2546 51.8386C46.4386 52.3768 45.4577 52.6459 44.3118 52.6459C43.4091 52.6459 42.5931 52.4289 41.8639 51.9949C41.1348 51.5608 40.5271 50.9098 40.041 50.0417C39.7632 49.5556 39.3987 49.2258 38.9473 49.0522C38.4959 48.8786 38.0445 48.8786 37.5931 49.0522C37.107 49.2258 36.7511 49.5556 36.5254 50.0417C36.2997 50.5279 36.291 50.9966 36.4993 51.448C37.0549 52.6286 37.8014 53.5921 38.7389 54.3386C39.6764 55.0852 40.8049 55.5973 42.1243 55.8751V56.7605C42.1243 57.2466 42.3066 57.672 42.6712 58.0365C43.0358 58.4011 43.4612 58.5834 43.9473 58.5834Z" fill="white"/>
<path d="M43.9473 58.5834C44.4334 58.5834 44.8587 58.4011 45.2233 58.0365C45.5879 57.672 45.7702 57.2466 45.7702 56.7605V55.9792C47.5063 55.6667 48.9993 54.9897 50.2493 53.948C51.4993 52.9063 52.1243 51.3612 52.1243 49.3126C52.1243 47.8542 51.7077 46.5174 50.8743 45.3022C50.041 44.0869 48.3743 43.0279 45.8743 42.1251C43.791 41.4306 42.35 40.823 41.5514 40.3022C40.7528 39.7813 40.3535 39.0695 40.3535 38.1667C40.3535 37.264 40.6747 36.5522 41.3171 36.0313C41.9594 35.5105 42.8882 35.2501 44.1035 35.2501C44.798 35.2501 45.4056 35.3716 45.9264 35.6147C46.4473 35.8577 46.8813 36.1876 47.2285 36.6042C47.5757 37.0209 47.9664 37.3074 48.4004 37.4636C48.8344 37.6199 49.2424 37.6112 49.6243 37.4376C50.1452 37.2292 50.5011 36.8733 50.6921 36.3699C50.883 35.8664 50.8396 35.4063 50.5618 34.9897C50.0063 34.1911 49.3205 33.514 48.5046 32.9584C47.6886 32.4029 46.8118 32.0904 45.8743 32.0209V31.2397C45.8743 30.7536 45.6921 30.3282 45.3275 29.9636C44.9629 29.599 44.5375 29.4167 44.0514 29.4167C43.5653 29.4167 43.14 29.599 42.7754 29.9636C42.4108 30.3282 42.2285 30.7536 42.2285 31.2397V32.0209C40.4924 32.4029 39.1382 33.1667 38.166 34.3126C37.1938 35.4584 36.7077 36.7431 36.7077 38.1667C36.7077 39.7987 37.1851 41.1181 38.14 42.1251C39.0948 43.132 40.5966 44.0001 42.6452 44.7292C44.8327 45.5279 46.3518 46.2397 47.2025 46.8647C48.0532 47.4897 48.4785 48.3056 48.4785 49.3126C48.4785 50.4584 48.0705 51.3004 47.2546 51.8386C46.4386 52.3768 45.4577 52.6459 44.3118 52.6459C43.4091 52.6459 42.5931 52.4289 41.8639 51.9949C41.1348 51.5608 40.5271 50.9098 40.041 50.0417C39.7632 49.5556 39.3987 49.2258 38.9473 49.0522C38.4959 48.8786 38.0445 48.8786 37.5931 49.0522C37.107 49.2258 36.7511 49.5556 36.5254 50.0417C36.2997 50.5279 36.291 50.9966 36.4993 51.448C37.0549 52.6286 37.8014 53.5921 38.7389 54.3386C39.6764 55.0852 40.8049 55.5973 42.1243 55.8751V56.7605C42.1243 57.2466 42.3066 57.672 42.6712 58.0365C43.0358 58.4011 43.4612 58.5834 43.9473 58.5834Z" fill="#181A29"/>
</g>
</svg>
