<svg width="88" height="88" viewBox="0 0 88 88" fill="none" xmlns="http://www.w3.org/2000/svg">
<path d="M62.1001 87.33L7.62939e-05 87.33L7.62939e-05 25.23C7.62939e-05 11.31 11.3001 -4.57764e-05 25.2301 -4.57764e-05L87.3301 -4.57764e-05L87.3301 62.1C87.3301 76.03 76.0301 87.33 62.1001 87.33Z" fill="#F1F2F7"/>
<mask id="mask0_524_22424" style="mask-type:alpha" maskUnits="userSpaceOnUse" x="19" y="19" width="50" height="50">
<rect x="19" y="19" width="50" height="50" fill="#D9D9D9"/>
</mask>
<g mask="url(#mask0_524_22424)">
<path d="M43.9998 64.8334C41.1179 64.8334 38.4096 64.2865 35.8748 63.1928C33.3401 62.099 31.1353 60.6147 29.2603 58.7397C27.3853 56.8647 25.9009 54.6598 24.8071 52.1251C23.7134 49.5904 23.1665 46.882 23.1665 44.0001C23.1665 41.1181 23.7134 38.4098 24.8071 35.8751C25.9009 33.3404 27.3853 31.1355 29.2603 29.2605C31.1353 27.3855 33.3401 25.9011 35.8748 24.8074C38.4096 23.7136 41.1179 23.1667 43.9998 23.1667C46.8818 23.1667 49.5901 23.7136 52.1248 24.8074C54.6596 25.9011 56.8644 27.3855 58.7394 29.2605C60.6144 31.1355 62.0988 33.3404 63.1925 35.8751C64.2863 38.4098 64.8332 41.1181 64.8332 44.0001C64.8332 46.882 64.2863 49.5904 63.1925 52.1251C62.0988 54.6598 60.6144 56.8647 58.7394 58.7397C56.8644 60.6147 54.6596 62.099 52.1248 63.1928C49.5901 64.2865 46.8818 64.8334 43.9998 64.8334ZM43.9478 58.5834C44.4339 58.5834 44.8592 58.4011 45.2238 58.0365C45.5884 57.672 45.7707 57.2466 45.7707 56.7605V55.9792C47.5068 55.6667 48.9998 54.9897 50.2498 53.948C51.4998 52.9063 52.1248 51.3612 52.1248 49.3126C52.1248 47.8542 51.7082 46.5174 50.8748 45.3022C50.0415 44.0869 48.3748 43.0279 45.8748 42.1251C43.7915 41.4306 42.3505 40.823 41.5519 40.3022C40.7533 39.7813 40.354 39.0695 40.354 38.1667C40.354 37.264 40.6752 36.5522 41.3175 36.0313C41.9599 35.5105 42.8887 35.2501 44.104 35.2501C44.7984 35.2501 45.4061 35.3716 45.9269 35.6147C46.4478 35.8577 46.8818 36.1876 47.229 36.6042C47.5762 37.0209 47.9669 37.3074 48.4009 37.4636C48.8349 37.6199 49.2429 37.6112 49.6248 37.4376C50.1457 37.2292 50.5016 36.8733 50.6925 36.3699C50.8835 35.8664 50.8401 35.4063 50.5623 34.9897C50.0068 34.1911 49.321 33.514 48.505 32.9584C47.6891 32.4029 46.8123 32.0904 45.8748 32.0209V31.2397C45.8748 30.7536 45.6925 30.3282 45.328 29.9636C44.9634 29.599 44.538 29.4167 44.0519 29.4167C43.5658 29.4167 43.1405 29.599 42.7759 29.9636C42.4113 30.3282 42.229 30.7536 42.229 31.2397V32.0209C40.4929 32.4029 39.1387 33.1667 38.1665 34.3126C37.1943 35.4584 36.7082 36.7431 36.7082 38.1667C36.7082 39.7987 37.1856 41.1181 38.1405 42.1251C39.0953 43.132 40.5971 44.0001 42.6457 44.7292C44.8332 45.5279 46.3523 46.2397 47.203 46.8647C48.0537 47.4897 48.479 48.3056 48.479 49.3126C48.479 50.4584 48.071 51.3004 47.255 51.8386C46.4391 52.3768 45.4582 52.6459 44.3123 52.6459C43.4096 52.6459 42.5936 52.4289 41.8644 51.9949C41.1353 51.5608 40.5276 50.9098 40.0415 50.0417C39.7637 49.5556 39.3991 49.2258 38.9478 49.0522C38.4964 48.8786 38.045 48.8786 37.5936 49.0522C37.1075 49.2258 36.7516 49.5556 36.5259 50.0417C36.3002 50.5279 36.2915 50.9966 36.4998 51.448C37.0554 52.6286 37.8019 53.5921 38.7394 54.3386C39.6769 55.0852 40.8054 55.5973 42.1248 55.8751V56.7605C42.1248 57.2466 42.3071 57.672 42.6717 58.0365C43.0363 58.4011 43.4616 58.5834 43.9478 58.5834Z" fill="#00AC69"/>
<path d="M43.9478 58.5834C44.4339 58.5834 44.8592 58.4011 45.2238 58.0365C45.5884 57.672 45.7707 57.2466 45.7707 56.7605V55.9792C47.5068 55.6667 48.9998 54.9897 50.2498 53.948C51.4998 52.9063 52.1248 51.3612 52.1248 49.3126C52.1248 47.8542 51.7082 46.5174 50.8748 45.3022C50.0415 44.0869 48.3748 43.0279 45.8748 42.1251C43.7915 41.4306 42.3505 40.823 41.5519 40.3022C40.7533 39.7813 40.354 39.0695 40.354 38.1667C40.354 37.264 40.6752 36.5522 41.3175 36.0313C41.9599 35.5105 42.8887 35.2501 44.104 35.2501C44.7984 35.2501 45.4061 35.3716 45.9269 35.6147C46.4478 35.8577 46.8818 36.1876 47.229 36.6042C47.5762 37.0209 47.9669 37.3074 48.4009 37.4636C48.8349 37.6199 49.2429 37.6112 49.6248 37.4376C50.1457 37.2292 50.5016 36.8733 50.6925 36.3699C50.8835 35.8664 50.8401 35.4063 50.5623 34.9897C50.0068 34.1911 49.321 33.514 48.505 32.9584C47.6891 32.4029 46.8123 32.0904 45.8748 32.0209V31.2397C45.8748 30.7536 45.6925 30.3282 45.328 29.9636C44.9634 29.599 44.538 29.4167 44.0519 29.4167C43.5658 29.4167 43.1405 29.599 42.7759 29.9636C42.4113 30.3282 42.229 30.7536 42.229 31.2397V32.0209C40.4929 32.4029 39.1387 33.1667 38.1665 34.3126C37.1943 35.4584 36.7082 36.7431 36.7082 38.1667C36.7082 39.7987 37.1856 41.1181 38.1405 42.1251C39.0953 43.132 40.5971 44.0001 42.6457 44.7292C44.8332 45.5279 46.3523 46.2397 47.203 46.8647C48.0537 47.4897 48.479 48.3056 48.479 49.3126C48.479 50.4584 48.071 51.3004 47.255 51.8386C46.4391 52.3768 45.4582 52.6459 44.3123 52.6459C43.4096 52.6459 42.5936 52.4289 41.8644 51.9949C41.1353 51.5608 40.5276 50.9098 40.0415 50.0417C39.7637 49.5556 39.3991 49.2258 38.9478 49.0522C38.4964 48.8786 38.045 48.8786 37.5936 49.0522C37.1075 49.2258 36.7516 49.5556 36.5259 50.0417C36.3002 50.5279 36.2915 50.9966 36.4998 51.448C37.0554 52.6286 37.8019 53.5921 38.7394 54.3386C39.6769 55.0852 40.8054 55.5973 42.1248 55.8751V56.7605C42.1248 57.2466 42.3071 57.672 42.6717 58.0365C43.0363 58.4011 43.4616 58.5834 43.9478 58.5834Z" fill="white"/>
</g>
</svg>
