<svg width="88" height="88" viewBox="0 0 88 88" fill="none" xmlns="http://www.w3.org/2000/svg">
<path d="M62.1001 87.33L7.62939e-05 87.33L7.62939e-05 25.23C7.62939e-05 11.31 11.3001 -4.57764e-05 25.2301 -4.57764e-05L87.3301 -4.57764e-05L87.3301 62.1C87.3301 76.03 76.0301 87.33 62.1001 87.33Z" fill="#2B2F4B"/>
<mask id="mask0_235_2507" style="mask-type:alpha" maskUnits="userSpaceOnUse" x="19" y="19" width="50" height="50">
<rect x="19" y="19" width="50" height="50" fill="#D9D9D9"/>
</mask>
<g mask="url(#mask0_235_2507)">
<path d="M44 62.75C39.625 62.75 35.7535 61.4219 32.3854 58.7656C29.0174 56.1094 26.8299 52.7153 25.8229 48.5833C25.684 48.0625 25.7882 47.5851 26.1354 47.151C26.4826 46.717 26.9514 46.4653 27.5417 46.3958C28.0972 46.3264 28.6007 46.4306 29.0521 46.7083C29.5035 46.9861 29.816 47.4028 29.9896 47.9583C30.8229 51.0833 32.5417 53.6354 35.1458 55.6146C37.75 57.5938 40.7014 58.5833 44 58.5833C48.0625 58.5833 51.5087 57.1684 54.3385 54.3385C57.1684 51.5087 58.5833 48.0625 58.5833 44C58.5833 39.9375 57.1684 36.4913 54.3385 33.6615C51.5087 30.8316 48.0625 29.4167 44 29.4167C41.6042 29.4167 39.3646 29.9722 37.2812 31.0833C35.1979 32.1944 33.4444 33.7222 32.0208 35.6667H35.6667C36.2569 35.6667 36.7517 35.8663 37.151 36.2656C37.5503 36.6649 37.75 37.1597 37.75 37.75C37.75 38.3403 37.5503 38.8351 37.151 39.2344C36.7517 39.6337 36.2569 39.8333 35.6667 39.8333H27.3333C26.7431 39.8333 26.2483 39.6337 25.849 39.2344C25.4497 38.8351 25.25 38.3403 25.25 37.75V29.4167C25.25 28.8264 25.4497 28.3316 25.849 27.9323C26.2483 27.533 26.7431 27.3333 27.3333 27.3333C27.9236 27.3333 28.4184 27.533 28.8177 27.9323C29.217 28.3316 29.4167 28.8264 29.4167 29.4167V32.2292C31.1875 30.0069 33.349 28.2882 35.901 27.0729C38.4531 25.8576 41.1528 25.25 44 25.25C46.6042 25.25 49.0434 25.7448 51.3177 26.7344C53.592 27.724 55.5712 29.0608 57.2552 30.7448C58.9392 32.4288 60.276 34.408 61.2656 36.6823C62.2552 38.9566 62.75 41.3958 62.75 44C62.75 46.6042 62.2552 49.0434 61.2656 51.3177C60.276 53.592 58.9392 55.5712 57.2552 57.2552C55.5712 58.9392 53.592 60.276 51.3177 61.2656C49.0434 62.2552 46.6042 62.75 44 62.75ZM46.0833 43.1667L51.2917 48.375C51.6736 48.7569 51.8646 49.2431 51.8646 49.8333C51.8646 50.4236 51.6736 50.9097 51.2917 51.2917C50.9097 51.6736 50.4236 51.8646 49.8333 51.8646C49.2431 51.8646 48.7569 51.6736 48.375 51.2917L42.5417 45.4583C42.3333 45.25 42.1771 45.0156 42.0729 44.7552C41.9687 44.4948 41.9167 44.2257 41.9167 43.9479V35.6667C41.9167 35.0764 42.1163 34.5816 42.5156 34.1823C42.9149 33.783 43.4097 33.5833 44 33.5833C44.5903 33.5833 45.0851 33.783 45.4844 34.1823C45.8837 34.5816 46.0833 35.0764 46.0833 35.6667V43.1667Z" fill="white"/>
</g>
</svg>
