<svg width="88" height="88" viewBox="0 0 88 88" fill="none" xmlns="http://www.w3.org/2000/svg">
<path d="M62.1001 87.33L7.62939e-05 87.33L7.62939e-05 25.23C7.62939e-05 11.31 11.3001 -4.57764e-05 25.2301 -4.57764e-05L87.3301 -4.57764e-05L87.3301 62.1C87.3301 76.03 76.0301 87.33 62.1001 87.33Z" fill="#2B2F4B"/>
<mask id="mask0_371_3037" style="mask-type:alpha" maskUnits="userSpaceOnUse" x="19" y="19" width="50" height="50">
<rect x="19" y="19" width="50" height="50" fill="#D9D9D9"/>
</mask>
<g mask="url(#mask0_371_3037)">
<path d="M21.0833 56.5C20.4931 56.5 19.9983 56.3003 19.599 55.901C19.1997 55.5017 19 55.0069 19 54.4167V53.2188C19 51.7257 19.7639 50.5104 21.2917 49.5729C22.8194 48.6354 24.8333 48.1667 27.3333 48.1667C27.7847 48.1667 28.2188 48.1753 28.6354 48.1927C29.0521 48.2101 29.4514 48.2535 29.8333 48.3229C29.3472 49.0521 28.9826 49.816 28.7396 50.6146C28.4965 51.4132 28.375 52.2465 28.375 53.1146V56.5H21.0833ZM33.5833 56.5C32.9931 56.5 32.4983 56.3003 32.099 55.901C31.6997 55.5017 31.5 55.0069 31.5 54.4167V53.1146C31.5 52.0035 31.8038 50.9878 32.4115 50.0677C33.0191 49.1476 33.8785 48.3403 34.9896 47.6458C36.1007 46.9514 37.4288 46.4306 38.974 46.0833C40.5191 45.7361 42.1944 45.5625 44 45.5625C45.8403 45.5625 47.533 45.7361 49.0781 46.0833C50.6233 46.4306 51.9514 46.9514 53.0625 47.6458C54.1736 48.3403 55.0243 49.1476 55.6146 50.0677C56.2049 50.9878 56.5 52.0035 56.5 53.1146V54.4167C56.5 55.0069 56.3003 55.5017 55.901 55.901C55.5017 56.3003 55.0069 56.5 54.4167 56.5H33.5833ZM59.625 56.5V53.1146C59.625 52.2118 59.5121 51.3611 59.2865 50.5625C59.0608 49.7639 58.7222 49.0174 58.2708 48.3229C58.6528 48.2535 59.0434 48.2101 59.4427 48.1927C59.842 48.1753 60.25 48.1667 60.6667 48.1667C63.1667 48.1667 65.1806 48.6267 66.7083 49.5469C68.2361 50.467 69 51.691 69 53.2188V54.4167C69 55.0069 68.8003 55.5017 68.401 55.901C68.0017 56.3003 67.5069 56.5 66.9167 56.5H59.625ZM27.3333 46.0833C26.1875 46.0833 25.2066 45.6753 24.3906 44.8594C23.5747 44.0434 23.1667 43.0625 23.1667 41.9167C23.1667 40.7361 23.5747 39.7465 24.3906 38.9479C25.2066 38.1493 26.1875 37.75 27.3333 37.75C28.5139 37.75 29.5035 38.1493 30.3021 38.9479C31.1007 39.7465 31.5 40.7361 31.5 41.9167C31.5 43.0625 31.1007 44.0434 30.3021 44.8594C29.5035 45.6753 28.5139 46.0833 27.3333 46.0833ZM60.6667 46.0833C59.5208 46.0833 58.5399 45.6753 57.724 44.8594C56.908 44.0434 56.5 43.0625 56.5 41.9167C56.5 40.7361 56.908 39.7465 57.724 38.9479C58.5399 38.1493 59.5208 37.75 60.6667 37.75C61.8472 37.75 62.8368 38.1493 63.6354 38.9479C64.434 39.7465 64.8333 40.7361 64.8333 41.9167C64.8333 43.0625 64.434 44.0434 63.6354 44.8594C62.8368 45.6753 61.8472 46.0833 60.6667 46.0833ZM44 44C42.2639 44 40.7882 43.3924 39.5729 42.1771C38.3576 40.9618 37.75 39.4861 37.75 37.75C37.75 35.9792 38.3576 34.4948 39.5729 33.2969C40.7882 32.099 42.2639 31.5 44 31.5C45.7708 31.5 47.2552 32.099 48.4531 33.2969C49.651 34.4948 50.25 35.9792 50.25 37.75C50.25 39.4861 49.651 40.9618 48.4531 42.1771C47.2552 43.3924 45.7708 44 44 44Z" fill="white"/>
</g>
</svg>
