<svg width="88" height="88" viewBox="0 0 88 88" fill="none" xmlns="http://www.w3.org/2000/svg">
<path d="M62.5764 88L-7.62939e-06 88L-7.62939e-06 25.4236C-7.62939e-06 11.3968 11.3867 -7.62939e-06 25.4236 -7.62939e-06L88 -7.62939e-06L88 62.5764C88 76.6133 76.6133 88 62.5764 88Z" fill="#F1F2F7"/>
<path d="M21.0833 57C20.4931 57 19.9983 56.8003 19.599 56.401C19.1997 56.0017 19 55.5069 19 54.9167V53.7188C19 52.2257 19.7639 51.0104 21.2917 50.0729C22.8194 49.1354 24.8333 48.6667 27.3333 48.6667C27.7847 48.6667 28.2188 48.6753 28.6354 48.6927C29.0521 48.7101 29.4514 48.7535 29.8333 48.8229C29.3472 49.5521 28.9826 50.316 28.7396 51.1146C28.4965 51.9132 28.375 52.7465 28.375 53.6146V57H21.0833ZM33.5833 57C32.9931 57 32.4983 56.8003 32.099 56.401C31.6997 56.0017 31.5 55.5069 31.5 54.9167V53.6146C31.5 52.5035 31.8038 51.4878 32.4115 50.5677C33.0191 49.6476 33.8785 48.8403 34.9896 48.1458C36.1007 47.4514 37.4288 46.9306 38.974 46.5833C40.5191 46.2361 42.1944 46.0625 44 46.0625C45.8403 46.0625 47.533 46.2361 49.0781 46.5833C50.6233 46.9306 51.9514 47.4514 53.0625 48.1458C54.1736 48.8403 55.0243 49.6476 55.6146 50.5677C56.2049 51.4878 56.5 52.5035 56.5 53.6146V54.9167C56.5 55.5069 56.3003 56.0017 55.901 56.401C55.5017 56.8003 55.0069 57 54.4167 57H33.5833ZM59.625 57V53.6146C59.625 52.7118 59.5121 51.8611 59.2865 51.0625C59.0608 50.2639 58.7222 49.5174 58.2708 48.8229C58.6528 48.7535 59.0434 48.7101 59.4427 48.6927C59.842 48.6753 60.25 48.6667 60.6667 48.6667C63.1667 48.6667 65.1806 49.1267 66.7083 50.0469C68.2361 50.967 69 52.191 69 53.7188V54.9167C69 55.5069 68.8003 56.0017 68.401 56.401C68.0017 56.8003 67.5069 57 66.9167 57H59.625ZM27.3333 46.5833C26.1875 46.5833 25.2066 46.1753 24.3906 45.3594C23.5747 44.5434 23.1667 43.5625 23.1667 42.4167C23.1667 41.2361 23.5747 40.2465 24.3906 39.4479C25.2066 38.6493 26.1875 38.25 27.3333 38.25C28.5139 38.25 29.5035 38.6493 30.3021 39.4479C31.1007 40.2465 31.5 41.2361 31.5 42.4167C31.5 43.5625 31.1007 44.5434 30.3021 45.3594C29.5035 46.1753 28.5139 46.5833 27.3333 46.5833ZM60.6667 46.5833C59.5208 46.5833 58.5399 46.1753 57.724 45.3594C56.908 44.5434 56.5 43.5625 56.5 42.4167C56.5 41.2361 56.908 40.2465 57.724 39.4479C58.5399 38.6493 59.5208 38.25 60.6667 38.25C61.8472 38.25 62.8368 38.6493 63.6354 39.4479C64.434 40.2465 64.8333 41.2361 64.8333 42.4167C64.8333 43.5625 64.434 44.5434 63.6354 45.3594C62.8368 46.1753 61.8472 46.5833 60.6667 46.5833ZM44 44.5C42.2639 44.5 40.7882 43.8924 39.5729 42.6771C38.3576 41.4618 37.75 39.9861 37.75 38.25C37.75 36.4792 38.3576 34.9948 39.5729 33.7969C40.7882 32.599 42.2639 32 44 32C45.7708 32 47.2552 32.599 48.4531 33.7969C49.651 34.9948 50.25 36.4792 50.25 38.25C50.25 39.9861 49.651 41.4618 48.4531 42.6771C47.2552 43.8924 45.7708 44.5 44 44.5Z" fill="#00AC69"/>
</svg>
