<svg width="88" height="88" viewBox="0 0 88 88" fill="none" xmlns="http://www.w3.org/2000/svg">
<path d="M62.1001 87.33L7.62939e-05 87.33L7.62939e-05 25.23C7.62939e-05 11.31 11.3001 -4.57764e-05 25.2301 -4.57764e-05L87.3301 -4.57764e-05L87.3301 62.1C87.3301 76.03 76.0301 87.33 62.1001 87.33Z" fill="#2B2F4B"/>
<mask id="mask0_136_3080" style="mask-type:alpha" maskUnits="userSpaceOnUse" x="19" y="19" width="50" height="50">
<rect x="19" y="19" width="50" height="50" fill="#D9D9D9"/>
</mask>
<g mask="url(#mask0_136_3080)">
<path d="M54.417 55.25L50.4587 59.2083C50.0767 59.5903 49.5906 59.7813 49.0003 59.7813C48.41 59.7813 47.9239 59.5903 47.542 59.2083C47.16 58.8264 46.9691 58.3403 46.9691 57.75C46.9691 57.1597 47.16 56.6736 47.542 56.2917L51.5003 52.3333L47.542 48.375C47.16 47.9931 46.9691 47.507 46.9691 46.9167C46.9691 46.3264 47.16 45.8403 47.542 45.4583C47.9239 45.0764 48.41 44.8854 49.0003 44.8854C49.5906 44.8854 50.0767 45.0764 50.4587 45.4583L54.417 49.4167L58.3753 45.4583C58.7573 45.0764 59.2434 44.8854 59.8337 44.8854C60.4239 44.8854 60.91 45.0764 61.292 45.4583C61.6739 45.8403 61.8649 46.3264 61.8649 46.9167C61.8649 47.507 61.6739 47.9931 61.292 48.375L57.3337 52.3333L61.292 56.2917C61.6739 56.6736 61.8649 57.1597 61.8649 57.75C61.8649 58.3403 61.6739 58.8264 61.292 59.2083C60.91 59.5903 60.4239 59.7813 59.8337 59.7813C59.2434 59.7813 58.7573 59.5903 58.3753 59.2083L54.417 55.25ZM53.0628 36.0313L60.4587 28.6354C60.8753 28.2188 61.3614 28.0191 61.917 28.0365C62.4725 28.0538 62.9587 28.2708 63.3753 28.6875C63.7573 29.1042 63.9482 29.5903 63.9482 30.1458C63.9482 30.7014 63.7573 31.1875 63.3753 31.6042L54.5732 40.4583C54.1566 40.875 53.6705 41.0833 53.1149 41.0833C52.5594 41.0833 52.0732 40.875 51.6566 40.4583L47.1774 35.9792C46.7955 35.5972 46.6045 35.1111 46.6045 34.5208C46.6045 33.9306 46.7955 33.4445 47.1774 33.0625C47.5594 32.6806 48.0455 32.4896 48.6357 32.4896C49.226 32.4896 49.7121 32.6806 50.0941 33.0625L53.0628 36.0313ZM25.2503 50.25H39.8337C40.4239 50.25 40.9187 50.4497 41.318 50.849C41.7173 51.2483 41.917 51.7431 41.917 52.3333C41.917 52.9236 41.7173 53.4184 41.318 53.8177C40.9187 54.217 40.4239 54.4167 39.8337 54.4167H25.2503C24.66 54.4167 24.1653 54.217 23.766 53.8177C23.3666 53.4184 23.167 52.9236 23.167 52.3333C23.167 51.7431 23.3666 51.2483 23.766 50.849C24.1653 50.4497 24.66 50.25 25.2503 50.25ZM25.2503 33.5833H39.8337C40.4239 33.5833 40.9187 33.783 41.318 34.1823C41.7173 34.5816 41.917 35.0764 41.917 35.6667C41.917 36.257 41.7173 36.7517 41.318 37.1511C40.9187 37.5504 40.4239 37.75 39.8337 37.75H25.2503C24.66 37.75 24.1653 37.5504 23.766 37.1511C23.3666 36.7517 23.167 36.257 23.167 35.6667C23.167 35.0764 23.3666 34.5816 23.766 34.1823C24.1653 33.783 24.66 33.5833 25.2503 33.5833Z" fill="white"/>
</g>
</svg>
