<svg width="88" height="88" viewBox="0 0 88 88" fill="none" xmlns="http://www.w3.org/2000/svg">
<path d="M62.1001 87.33L7.62939e-05 87.33L7.62939e-05 25.23C7.62939e-05 11.31 11.3001 -4.57764e-05 25.2301 -4.57764e-05L87.3301 -4.57764e-05L87.3301 62.1C87.3301 76.03 76.0301 87.33 62.1001 87.33Z" fill="#2B2F4B"/>
<mask id="mask0_619_3362" style="mask-type:alpha" maskUnits="userSpaceOnUse" x="19" y="19" width="50" height="50">
<rect x="19" y="19" width="50" height="50" fill="#D9D9D9"/>
</mask>
<g mask="url(#mask0_619_3362)">
<path d="M29.4167 62.75C28.2708 62.75 27.2899 62.342 26.474 61.526C25.658 60.7101 25.25 59.7292 25.25 58.5833V37.75C25.25 36.6042 25.658 35.6233 26.474 34.8073C27.2899 33.9913 28.2708 33.5833 29.4167 33.5833H33.5833V29.4167C33.5833 28.2708 33.9913 27.2899 34.8073 26.474C35.6233 25.658 36.6042 25.25 37.75 25.25H50.25C51.3958 25.25 52.3767 25.658 53.1927 26.474C54.0087 27.2899 54.4167 28.2708 54.4167 29.4167V41.9167H58.5833C59.7292 41.9167 60.7101 42.3247 61.526 43.1406C62.342 43.9566 62.75 44.9375 62.75 46.0833V58.5833C62.75 59.7292 62.342 60.7101 61.526 61.526C60.7101 62.342 59.7292 62.75 58.5833 62.75H46.0833V54.4167H41.9167V62.75H29.4167ZM29.4167 58.5833H33.5833V54.4167H29.4167V58.5833ZM29.4167 50.25H33.5833V46.0833H29.4167V50.25ZM29.4167 41.9167H33.5833V37.75H29.4167V41.9167ZM37.75 50.25H41.9167V46.0833H37.75V50.25ZM37.75 41.9167H41.9167V37.75H37.75V41.9167ZM37.75 33.5833H41.9167V29.4167H37.75V33.5833ZM46.0833 50.25H50.25V46.0833H46.0833V50.25ZM46.0833 41.9167H50.25V37.75H46.0833V41.9167ZM46.0833 33.5833H50.25V29.4167H46.0833V33.5833ZM54.4167 58.5833H58.5833V54.4167H54.4167V58.5833ZM54.4167 50.25H58.5833V46.0833H54.4167V50.25Z" fill="white"/>
</g>
</svg>
